<mxfile host="65bd71144e">
    <diagram id="nL7n_lmdpstyjK2MGDIt" name="Page-1">
        <mxGraphModel dx="1216" dy="594" grid="0" gridSize="10" guides="1" tooltips="1" connect="1" arrows="1" fold="1" page="1" pageScale="1" pageWidth="827" pageHeight="1169" background="#ffffff" math="0" shadow="0">
            <root>
                <mxCell id="0"/>
                <mxCell id="1" parent="0"/>
                <mxCell id="2" value="Marque" style="shape=umlActor;verticalLabelPosition=bottom;verticalAlign=top;html=1;outlineConnect=0;fillColor=#1BA2E3;strokeColor=#000000;fontColor=#000000;" parent="1" vertex="1">
                    <mxGeometry x="53" y="191" width="38" height="78" as="geometry"/>
                </mxCell>
                <mxCell id="34" value="" style="rounded=0;whiteSpace=wrap;html=1;strokeColor=#000000;fontColor=#000000;fillColor=#1BA2E3;" parent="1" vertex="1">
                    <mxGeometry x="177" y="12" width="606" height="1054" as="geometry"/>
                </mxCell>
                <mxCell id="36" value="Influenceur" style="shape=umlActor;verticalLabelPosition=bottom;verticalAlign=top;html=1;outlineConnect=0;fillColor=#1BA2E3;strokeColor=#000000;fontColor=#000000;" parent="1" vertex="1">
                    <mxGeometry x="53" y="517" width="38" height="78" as="geometry"/>
                </mxCell>
                <mxCell id="37" value="" style="endArrow=none;html=1;fontColor=#000000;strokeColor=#000000;entryX=0;entryY=0.5;entryDx=0;entryDy=0;" parent="1" target="63" edge="1">
                    <mxGeometry width="50" height="50" relative="1" as="geometry">
                        <mxPoint x="99" y="230" as="sourcePoint"/>
                        <mxPoint x="224" y="292.3700000000001" as="targetPoint"/>
                    </mxGeometry>
                </mxCell>
                <mxCell id="39" value="" style="endArrow=none;html=1;fontColor=#000000;strokeColor=#000000;entryX=0;entryY=0.5;entryDx=0;entryDy=0;" parent="1" edge="1">
                    <mxGeometry width="50" height="50" relative="1" as="geometry">
                        <mxPoint x="99" y="229" as="sourcePoint"/>
                        <mxPoint x="220.00000000000398" y="147.5" as="targetPoint"/>
                        <Array as="points">
                            <mxPoint x="155" y="229"/>
                            <mxPoint x="155" y="147"/>
                        </Array>
                    </mxGeometry>
                </mxCell>
                <mxCell id="40" value="" style="endArrow=none;html=1;fontColor=#000000;strokeColor=#000000;entryX=0;entryY=0.5;entryDx=0;entryDy=0;" parent="1" edge="1">
                    <mxGeometry width="50" height="50" relative="1" as="geometry">
                        <mxPoint x="96" y="229" as="sourcePoint"/>
                        <mxPoint x="213" y="416" as="targetPoint"/>
                        <Array as="points">
                            <mxPoint x="154" y="229"/>
                            <mxPoint x="154" y="416"/>
                        </Array>
                    </mxGeometry>
                </mxCell>
                <mxCell id="62" value="Gérer une campgne" style="ellipse;whiteSpace=wrap;html=1;strokeColor=#000000;fontColor=#000000;fillColor=#1BA2E3;" parent="1" vertex="1">
                    <mxGeometry x="217.5" y="123" width="100" height="49" as="geometry"/>
                </mxCell>
                <mxCell id="63" value="Gerer son compte" style="ellipse;whiteSpace=wrap;html=1;strokeColor=#000000;fontColor=#000000;fillColor=#1BA2E3;" parent="1" vertex="1">
                    <mxGeometry x="218" y="210" width="106" height="40" as="geometry"/>
                </mxCell>
                <mxCell id="69" value="Accepter une candidature" style="ellipse;whiteSpace=wrap;html=1;strokeColor=#000000;fontColor=#000000;fillColor=#1BA2E3;" parent="1" vertex="1">
                    <mxGeometry x="214.5" y="393" width="104" height="46" as="geometry"/>
                </mxCell>
                <mxCell id="71" value="S'authentifier" style="ellipse;whiteSpace=wrap;html=1;strokeColor=#000000;fontColor=#000000;fillColor=#1BA2E3;" parent="1" vertex="1">
                    <mxGeometry x="635" y="210" width="94" height="36" as="geometry"/>
                </mxCell>
                <mxCell id="72" value="&amp;lt;&amp;lt;Include&amp;gt;&amp;gt;" style="endArrow=open;endSize=12;dashed=1;html=1;strokeColor=#000000;fontColor=#000000;labelBackgroundColor=#1BA2E3;strokeWidth=1;exitX=1;exitY=0.5;exitDx=0;exitDy=0;entryX=0;entryY=0.5;entryDx=0;entryDy=0;" parent="1" source="63" target="71" edge="1">
                    <mxGeometry width="160" relative="1" as="geometry">
                        <mxPoint x="323" y="293" as="sourcePoint"/>
                        <mxPoint x="631" y="295" as="targetPoint"/>
                        <Array as="points"/>
                    </mxGeometry>
                </mxCell>
                <mxCell id="73" value="&amp;lt;&amp;lt;Include&amp;gt;&amp;gt;" style="endArrow=open;endSize=12;dashed=1;html=1;strokeColor=#000000;fontColor=#000000;labelBackgroundColor=#1BA2E3;strokeWidth=1;entryX=0.44;entryY=-0.027;entryDx=0;entryDy=0;entryPerimeter=0;exitX=1;exitY=0.5;exitDx=0;exitDy=0;" parent="1" source="62" target="71" edge="1">
                    <mxGeometry width="160" relative="1" as="geometry">
                        <mxPoint x="320" y="121" as="sourcePoint"/>
                        <mxPoint x="558" y="226" as="targetPoint"/>
                        <Array as="points">
                            <mxPoint x="674" y="150"/>
                        </Array>
                    </mxGeometry>
                </mxCell>
                <mxCell id="74" value="&amp;lt;&amp;lt;Include&amp;gt;&amp;gt;" style="endArrow=open;endSize=12;dashed=1;html=1;strokeColor=#000000;fontColor=#000000;labelBackgroundColor=#1BA2E3;strokeWidth=1;exitX=1;exitY=0.5;exitDx=0;exitDy=0;entryX=1;entryY=1;entryDx=0;entryDy=0;" parent="1" edge="1" target="71">
                    <mxGeometry width="160" relative="1" as="geometry">
                        <mxPoint x="317.5" y="416" as="sourcePoint"/>
                        <mxPoint x="692" y="250" as="targetPoint"/>
                        <Array as="points">
                            <mxPoint x="715" y="413"/>
                        </Array>
                    </mxGeometry>
                </mxCell>
                <mxCell id="81" value="Créer un compte" style="ellipse;whiteSpace=wrap;html=1;strokeColor=#000000;fontColor=#000000;fillColor=#1BA2E3;" parent="1" vertex="1">
                    <mxGeometry x="216.5" y="466" width="100" height="49" as="geometry"/>
                </mxCell>
                <mxCell id="82" value="Gerer son compte" style="ellipse;whiteSpace=wrap;html=1;strokeColor=#000000;fontColor=#000000;fillColor=#1BA2E3;" parent="1" vertex="1">
                    <mxGeometry x="213.5" y="536" width="106" height="40" as="geometry"/>
                </mxCell>
                <mxCell id="88" value="Postuler pour une campagne" style="ellipse;whiteSpace=wrap;html=1;strokeColor=#000000;fontColor=#000000;fillColor=#1BA2E3;" parent="1" vertex="1">
                    <mxGeometry x="202.5" y="598" width="128" height="46" as="geometry"/>
                </mxCell>
                <mxCell id="90" value="S'authentifier" style="ellipse;whiteSpace=wrap;html=1;strokeColor=#000000;fontColor=#000000;fillColor=#1BA2E3;" parent="1" vertex="1">
                    <mxGeometry x="657" y="540" width="94" height="36" as="geometry"/>
                </mxCell>
                <mxCell id="91" value="&amp;lt;&amp;lt;Include&amp;gt;&amp;gt;" style="endArrow=open;endSize=12;dashed=1;html=1;strokeColor=#000000;fontColor=#000000;labelBackgroundColor=#1BA2E3;strokeWidth=1;exitX=1;exitY=0.5;exitDx=0;exitDy=0;" parent="1" target="90" edge="1" source="82">
                    <mxGeometry width="160" relative="1" as="geometry">
                        <mxPoint x="338" y="761" as="sourcePoint"/>
                        <mxPoint x="646" y="763" as="targetPoint"/>
                        <Array as="points"/>
                    </mxGeometry>
                </mxCell>
                <mxCell id="93" value="&amp;lt;&amp;lt;Include&amp;gt;&amp;gt;" style="endArrow=open;endSize=12;dashed=1;html=1;strokeColor=#000000;fontColor=#000000;labelBackgroundColor=#1BA2E3;strokeWidth=1;exitX=1;exitY=0.5;exitDx=0;exitDy=0;entryX=0.5;entryY=1;entryDx=0;entryDy=0;" parent="1" source="88" target="90" edge="1">
                    <mxGeometry width="160" relative="1" as="geometry">
                        <mxPoint x="333" y="928" as="sourcePoint"/>
                        <mxPoint x="688" y="783" as="targetPoint"/>
                        <Array as="points">
                            <mxPoint x="700" y="621"/>
                        </Array>
                    </mxGeometry>
                </mxCell>
                <mxCell id="101" value="&amp;lt;&amp;lt;Include&amp;gt;&amp;gt;" style="endArrow=open;endSize=12;dashed=1;html=1;strokeColor=#000000;fontColor=#000000;labelBackgroundColor=#1BA2E3;strokeWidth=1;shadow=0;exitX=0.5;exitY=1;exitDx=0;exitDy=0;entryX=0;entryY=0.5;entryDx=0;entryDy=0;" parent="1" source="88" target="103" edge="1">
                    <mxGeometry x="-0.0322" y="1" width="160" relative="1" as="geometry">
                        <mxPoint x="419" y="811" as="sourcePoint"/>
                        <mxPoint x="657" y="916" as="targetPoint"/>
                        <Array as="points">
                            <mxPoint x="267" y="678"/>
                        </Array>
                        <mxPoint as="offset"/>
                    </mxGeometry>
                </mxCell>
                <mxCell id="103" value="Lire et acepter les conditons" style="ellipse;whiteSpace=wrap;html=1;strokeColor=#000000;fontColor=#000000;fillColor=#1BA2E3;" parent="1" vertex="1">
                    <mxGeometry x="408" y="655" width="128" height="46" as="geometry"/>
                </mxCell>
                <mxCell id="104" value="" style="endArrow=none;html=1;fontColor=#000000;strokeColor=#000000;entryX=0;entryY=0.5;entryDx=0;entryDy=0;" parent="1" edge="1" target="82">
                    <mxGeometry width="50" height="50" relative="1" as="geometry">
                        <mxPoint x="110" y="556" as="sourcePoint"/>
                        <mxPoint x="230.9999999999999" y="759.41" as="targetPoint"/>
                    </mxGeometry>
                </mxCell>
                <mxCell id="105" value="" style="endArrow=none;html=1;fontColor=#000000;strokeColor=#000000;entryX=0;entryY=0.5;entryDx=0;entryDy=0;" parent="1" edge="1" target="88">
                    <mxGeometry width="50" height="50" relative="1" as="geometry">
                        <mxPoint x="113" y="556" as="sourcePoint"/>
                        <mxPoint x="227.99999999999977" y="720.9999999999998" as="targetPoint"/>
                        <Array as="points">
                            <mxPoint x="154" y="556"/>
                            <mxPoint x="154" y="621"/>
                        </Array>
                    </mxGeometry>
                </mxCell>
                <mxCell id="106" value="" style="endArrow=none;html=1;fontColor=#000000;strokeColor=#000000;entryX=0;entryY=0.5;entryDx=0;entryDy=0;" parent="1" target="81" edge="1">
                    <mxGeometry width="50" height="50" relative="1" as="geometry">
                        <mxPoint x="112" y="555" as="sourcePoint"/>
                        <mxPoint x="233.0000000000041" y="597.5" as="targetPoint"/>
                        <Array as="points">
                            <mxPoint x="154" y="555"/>
                            <mxPoint x="154" y="491"/>
                        </Array>
                    </mxGeometry>
                </mxCell>
                <mxCell id="111" value="Créer un compte" style="ellipse;whiteSpace=wrap;html=1;strokeColor=#000000;fontColor=#000000;fillColor=#1BA2E3;" parent="1" vertex="1">
                    <mxGeometry x="216.5" y="53" width="102" height="46" as="geometry"/>
                </mxCell>
                <mxCell id="112" value="" style="endArrow=none;html=1;fontColor=#000000;strokeColor=#000000;entryX=0;entryY=0.5;entryDx=0;entryDy=0;" parent="1" target="111" edge="1">
                    <mxGeometry width="50" height="50" relative="1" as="geometry">
                        <mxPoint x="98" y="229" as="sourcePoint"/>
                        <mxPoint x="196" y="117" as="targetPoint"/>
                        <Array as="points">
                            <mxPoint x="154" y="229"/>
                            <mxPoint x="152" y="76"/>
                        </Array>
                    </mxGeometry>
                </mxCell>
                <mxCell id="113" value="System" style="rounded=0;whiteSpace=wrap;html=1;strokeColor=none;fontColor=#000000;fillColor=#1BA2E3;" parent="1" vertex="1">
                    <mxGeometry x="449" y="19" width="52" height="24" as="geometry"/>
                </mxCell>
                <mxCell id="114" value="Discuter avec un influenceur" style="ellipse;whiteSpace=wrap;html=1;strokeColor=#000000;fontColor=#000000;fillColor=#1BA2E3;" vertex="1" parent="1">
                    <mxGeometry x="444" y="342" width="115" height="46" as="geometry"/>
                </mxCell>
                <mxCell id="115" value="&amp;lt;&amp;lt;extend&amp;gt;&amp;gt;" style="endArrow=open;endSize=12;dashed=1;html=1;strokeColor=#000000;fontColor=#000000;labelBackgroundColor=#1BA2E3;strokeWidth=1;entryX=0;entryY=0.5;entryDx=0;entryDy=0;" edge="1" parent="1" target="114">
                    <mxGeometry width="160" relative="1" as="geometry">
                        <mxPoint x="268" y="392" as="sourcePoint"/>
                        <mxPoint x="443" y="430" as="targetPoint"/>
                        <Array as="points">
                            <mxPoint x="268" y="365"/>
                        </Array>
                    </mxGeometry>
                </mxCell>
                <mxCell id="116" value="Noter un influenceur" style="ellipse;whiteSpace=wrap;html=1;strokeColor=#000000;fontColor=#000000;fillColor=#1BA2E3;" vertex="1" parent="1">
                    <mxGeometry x="224" y="287" width="100" height="49" as="geometry"/>
                </mxCell>
                <mxCell id="117" value="" style="endArrow=none;html=1;fontColor=#000000;strokeColor=#000000;entryX=0;entryY=0.5;entryDx=0;entryDy=0;" edge="1" parent="1" target="116">
                    <mxGeometry width="50" height="50" relative="1" as="geometry">
                        <mxPoint x="97" y="229" as="sourcePoint"/>
                        <mxPoint x="220.0000000000041" y="164.5" as="targetPoint"/>
                        <Array as="points">
                            <mxPoint x="153" y="229"/>
                            <mxPoint x="155" y="312"/>
                        </Array>
                    </mxGeometry>
                </mxCell>
                <mxCell id="119" value="&amp;lt;&amp;lt;Include&amp;gt;&amp;gt;" style="endArrow=open;endSize=12;dashed=1;html=1;strokeColor=#000000;fontColor=#000000;labelBackgroundColor=#1BA2E3;strokeWidth=1;entryX=0.5;entryY=1;entryDx=0;entryDy=0;exitX=1;exitY=0.5;exitDx=0;exitDy=0;" edge="1" parent="1" source="116" target="71">
                    <mxGeometry x="-0.1462" width="160" relative="1" as="geometry">
                        <mxPoint x="330.5" y="312" as="sourcePoint"/>
                        <mxPoint x="665.2340187157679" y="139.99792206135785" as="targetPoint"/>
                        <Array as="points">
                            <mxPoint x="682" y="312"/>
                        </Array>
                        <mxPoint as="offset"/>
                    </mxGeometry>
                </mxCell>
                <mxCell id="121" value="Admin" style="shape=umlActor;verticalLabelPosition=bottom;verticalAlign=top;html=1;outlineConnect=0;fillColor=#1BA2E3;strokeColor=#000000;fontColor=#000000;" vertex="1" parent="1">
                    <mxGeometry x="53" y="814" width="38" height="78" as="geometry"/>
                </mxCell>
                <mxCell id="122" value="Lire et acepter les conditons" style="ellipse;whiteSpace=wrap;html=1;strokeColor=#000000;fontColor=#000000;fillColor=#1BA2E3;" vertex="1" parent="1">
                    <mxGeometry x="312" y="833" width="128" height="46" as="geometry"/>
                </mxCell>
                <mxCell id="125" value="S'authentifier" style="ellipse;whiteSpace=wrap;html=1;strokeColor=#000000;fontColor=#000000;fillColor=#1BA2E3;" vertex="1" parent="1">
                    <mxGeometry x="661" y="833" width="93" height="46" as="geometry"/>
                </mxCell>
                <mxCell id="127" value="&amp;lt;&amp;lt;Include&amp;gt;&amp;gt;" style="endArrow=open;endSize=12;dashed=1;html=1;strokeColor=#000000;fontColor=#000000;labelBackgroundColor=#1BA2E3;strokeWidth=1;exitX=1;exitY=0.5;exitDx=0;exitDy=0;entryX=0;entryY=0.5;entryDx=0;entryDy=0;" edge="1" parent="1" source="122" target="125">
                    <mxGeometry width="160" relative="1" as="geometry">
                        <mxPoint x="405" y="849" as="sourcePoint"/>
                        <mxPoint x="643" y="954" as="targetPoint"/>
                        <Array as="points"/>
                    </mxGeometry>
                </mxCell>
                <mxCell id="128" value="" style="endArrow=none;html=1;strokeColor=#000000;entryX=0;entryY=0.5;entryDx=0;entryDy=0;" edge="1" parent="1" target="122">
                    <mxGeometry width="50" height="50" relative="1" as="geometry">
                        <mxPoint x="97" y="854" as="sourcePoint"/>
                        <mxPoint x="430" y="761" as="targetPoint"/>
                    </mxGeometry>
                </mxCell>
            </root>
        </mxGraphModel>
    </diagram>
</mxfile>